# Blender v2.93.6 OBJ File: 'SamHead.blend'
# www.blender.org
mtllib skull.mtl
o Cube_Cube.001
v -0.801919 -1.004588 -1.179063
v -1.000000 0.826442 -1.017296
v -0.830388 -0.911027 1.015881
v -0.849558 0.885901 1.009590
v -1.061584 -0.241074 1.021266
v -0.983333 -0.672180 -0.278174
v -1.000000 1.016980 -0.278174
v -1.134296 -0.258700 -0.278174
v -0.320608 -0.696054 -1.179063
v -1.000000 0.921711 -0.728618
v -0.892626 -0.838384 -0.728618
v -1.145430 -0.258700 -0.728618
v -1.156564 -0.258700 -1.033658
v -0.635287 0.452073 -1.146621
v -0.687874 0.169856 -1.132551
v -0.299402 0.452073 -1.132551
v -0.299402 0.169856 -1.186902
v -0.467344 0.561276 -1.139586
v 0.801918 -1.004588 -1.179063
v 1.000000 0.826442 -1.017296
v 0.830389 -0.911027 1.015881
v 0.849559 0.885901 1.009590
v 0.000000 -0.911027 1.204211
v 0.000000 1.096799 1.011595
v 1.061585 -0.241074 1.021265
v 0.983333 -0.672180 -0.278175
v 1.000000 1.016980 -0.278175
v -0.000000 -1.095150 -1.179063
v -0.000000 1.380905 -0.278174
v -0.000000 -0.761801 -0.277959
v -0.000000 -0.258700 -1.340878
v 1.134296 -0.258700 -0.278175
v 0.000001 -0.173029 1.555873
v 0.000000 0.348889 1.412487
v 0.320607 -0.696054 -1.179063
v 1.000000 0.921711 -0.728619
v 0.892625 -0.838384 -0.728619
v -0.000000 1.198943 -0.728619
v 1.145430 -0.258700 -0.728619
v -0.000000 -0.761801 -0.728619
v -0.000000 1.016980 -1.179063
v 1.156563 -0.258700 -1.033659
v 0.635286 0.452073 -1.146621
v 0.687873 0.169856 -1.132551
v 0.299401 0.452073 -1.132551
v 0.299401 0.169856 -1.186902
v 0.467343 0.561276 -1.139586
vt 0.818182 0.538321
vt 0.723387 0.400513
vt 0.900257 0.393905
vt 0.205476 0.452726
vt 0.030816 0.406759
vt 0.205098 0.402392
vt 0.507658 0.245046
vt 0.654864 0.318965
vt 0.507658 0.319335
vt 0.669823 0.285987
vt 0.830277 0.356192
vt 0.670173 0.335812
vt 0.702616 0.006855
vt 0.828068 0.198429
vt 0.670173 0.210060
vt 0.644601 0.031045
vt 0.507658 0.000000
vt 0.185861 0.379067
vt 0.210276 0.189877
vt 0.274287 0.250301
vt 0.305556 0.453140
vt 0.334411 0.379067
vt 0.205175 0.741565
vt 0.276701 0.527214
vt 0.319573 0.740919
vt 0.025185 0.741565
vt 0.205924 0.527032
vt 0.906787 0.547000
vt 1.000000 0.447654
vt 1.000000 0.575407
vt 0.829173 0.277310
vt 0.015369 0.454445
vt 0.639906 0.392416
vt 0.560531 0.393905
vt 0.125400 0.294469
vt 0.133116 0.230868
vt 0.080347 0.280663
vt 0.086412 0.225603
vt 0.011088 0.333383
vt 0.000000 0.166174
vt 0.065517 0.251119
vt 0.701092 0.673132
vt 0.679904 0.531571
vt 0.474427 0.467564
vt 0.649087 0.421597
vt 0.664534 0.469283
vt 0.360451 0.318965
vt 0.345492 0.245514
vt 0.997826 0.287526
vt 0.981274 0.008163
vt 0.838415 0.000000
vt 0.370715 0.031045
vt 0.286132 0.145221
vt 0.228591 0.000000
vt 0.374347 0.467978
vt 0.474805 0.417230
vt 0.403202 0.542052
vt 0.474729 0.756403
vt 0.360331 0.755757
vt 0.473979 0.541870
vt 0.654719 0.756403
vt 0.978208 0.714121
vt 0.998176 0.211599
vt 0.679903 0.543639
vt 0.454785 0.393905
vt 0.375410 0.392416
vt 0.150814 0.069016
vt 0.097474 0.127474
vt 0.082783 0.097946
vt 0.103818 0.072446
vt 0.048034 0.005630
vt 0.669823 0.245514
vt 0.315865 0.334865
vt 0.345492 0.205119
vt 0.000000 0.528801
vt 0.797216 0.734562
vt 0.797216 0.826835
vt 0.738560 0.776223
vt 0.872397 0.734562
vt 0.998176 0.337352
vt 0.345492 0.072034
vt 0.345492 0.393905
vt 0.738560 0.734562
vt 0.738560 0.826834
vt 0.679904 0.785174
vt 0.144177 0.132738
vn -0.3844 0.0818 0.9195
vn -0.9892 0.1422 0.0361
vn 0.0855 -0.9963 0.0000
vn -0.2257 0.9251 -0.3053
vn -0.3389 0.9312 0.1344
vn 0.0227 -0.9947 -0.1001
vn -0.2531 -0.1670 -0.9529
vn -0.9047 -0.4252 -0.0253
vn -0.9439 -0.3262 0.0514
vn -0.9813 0.1852 0.0524
vn -0.2006 -0.4214 0.8844
vn -0.9160 -0.3995 -0.0371
vn -0.2618 0.9442 -0.1997
vn -0.9922 0.1222 0.0245
vn 0.4977 -0.7764 0.3867
vn -0.1341 0.2507 -0.9587
vn 0.0411 0.1890 -0.9811
vn -0.2504 0.0507 -0.9668
vn -0.3646 0.1172 -0.9238
vn -0.0086 -0.0775 -0.9970
vn 0.1185 0.4691 0.8752
vn 0.9917 0.1222 -0.0403
vn 0.0858 -0.9402 0.3296
vn 0.2490 0.8980 -0.3628
vn 0.2361 0.9490 0.2090
vn -0.0227 -0.9947 -0.1001
vn 0.2531 -0.1670 -0.9529
vn 0.9161 -0.3995 0.0334
vn 0.9439 -0.3262 0.0514
vn 0.9813 0.1852 0.0524
vn 0.2006 -0.4214 0.8844
vn 0.9391 -0.3429 0.0232
vn 0.3197 0.8785 -0.3549
vn 0.9943 0.1047 -0.0221
vn -0.4977 -0.7764 0.3867
vn 0.2563 0.0577 -0.9649
vn -0.0419 0.0000 -0.9991
vn 0.2504 0.0507 -0.9668
vn 0.3646 0.1172 -0.9238
vn 0.0086 -0.0775 -0.9970
vn -0.4491 0.2367 0.8616
vn -0.1185 0.4691 0.8752
vn -0.9917 0.1222 -0.0403
vn -0.0858 -0.9402 0.3296
vn -0.2490 0.8980 -0.3628
vn -0.2361 0.9490 0.2090
vn -0.0894 -0.9813 -0.1706
vn -0.0943 0.1471 -0.9846
vn -0.2301 -0.1848 -0.9555
vn -0.9161 -0.3995 0.0334
vn -0.9378 -0.3424 0.0571
vn -0.9866 0.1039 0.1258
vn -0.4361 -0.1576 0.8860
vn -0.9391 -0.3429 0.0232
vn -0.3197 0.8785 -0.3549
vn -0.9943 0.1047 -0.0221
vn -0.7073 -0.5682 0.4205
vn 0.0837 -0.9758 -0.2020
vn -0.2563 0.0577 -0.9649
vn -0.1385 -0.0235 -0.9901
vn 0.0419 -0.0000 -0.9991
vn -0.3224 0.0129 -0.9465
vn -0.2281 0.1841 -0.9561
vn -0.1082 0.2288 -0.9674
vn -0.1768 0.0965 -0.9795
vn 0.4491 0.2367 0.8616
vn 0.3844 0.0818 0.9195
vn 0.9892 0.1422 0.0361
vn -0.0855 -0.9963 -0.0000
vn 0.2257 0.9251 -0.3053
vn 0.3389 0.9312 0.1344
vn 0.0894 -0.9813 -0.1706
vn 0.0943 0.1471 -0.9846
vn 0.2301 -0.1848 -0.9555
vn 0.9047 -0.4252 -0.0253
vn 0.9378 -0.3424 0.0571
vn 0.9866 0.1039 0.1258
vn 0.4361 -0.1576 0.8860
vn 0.9160 -0.3995 -0.0371
vn 0.2618 0.9442 -0.1997
vn 0.9922 0.1222 0.0245
vn -0.0837 -0.9758 -0.2020
vn 0.7073 -0.5682 0.4205
vn 0.1341 0.2507 -0.9587
vn 0.1385 -0.0235 -0.9901
vn -0.0411 0.1890 -0.9811
vn 0.3224 0.0129 -0.9465
vn 0.2281 0.1841 -0.9561
vn 0.1768 0.0965 -0.9795
vn 0.1082 0.2288 -0.9674
usemtl Material
s off
f 34/1/1 4/2/1 5/3/1
f 12/4/2 2/5/2 13/6/2
f 30/7/3 11/8/3 40/9/3
f 10/10/4 41/11/4 2/12/4
f 4/13/5 29/14/5 7/15/5
f 3/16/6 30/7/6 23/17/6
f 13/18/7 31/19/7 9/20/7
f 11/21/8 13/6/8 1/22/8
f 5/23/9 6/24/9 3/25/9
f 4/26/10 8/27/10 5/23/10
f 33/28/11 3/29/11 23/30/11
f 6/24/12 12/4/12 11/21/12
f 7/15/13 38/31/13 10/10/13
f 8/27/14 10/32/14 12/4/14
f 11/8/15 1/33/15 9/34/15
f 31/19/16 15/35/16 17/36/16
f 14/37/17 16/38/17 17/36/17
f 2/39/18 15/35/18 13/18/18
f 31/19/19 16/38/19 41/40/19
f 41/40/20 16/38/20 18/41/20
f 22/42/21 24/43/21 34/1/21
f 39/44/22 20/45/22 36/46/22
f 30/7/23 37/47/23 26/48/23
f 36/49/24 41/11/24 38/31/24
f 22/50/25 29/14/25 24/51/25
f 30/7/26 21/52/26 23/17/26
f 35/53/27 31/19/27 42/54/27
f 37/55/28 42/56/28 39/44/28
f 26/57/29 25/58/29 21/59/29
f 32/60/30 22/61/30 25/58/30
f 21/62/31 33/28/31 23/30/31
f 26/57/32 39/44/32 32/60/32
f 27/63/33 38/31/33 29/14/33
f 32/60/34 36/46/34 27/64/34
f 35/65/35 19/66/35 37/47/35
f 31/19/36 44/67/36 42/54/36
f 45/68/37 47/69/37 43/70/37
f 44/67/38 20/71/38 42/54/38
f 45/68/39 31/19/39 41/40/39
f 47/69/40 45/68/40 41/40/40
f 5/3/41 33/28/41 34/1/41
f 34/1/42 24/43/42 4/2/42
f 12/4/43 10/32/43 2/5/43
f 30/7/44 6/72/44 11/8/44
f 10/10/45 38/31/45 41/11/45
f 4/13/46 24/51/46 29/14/46
f 3/16/47 6/72/47 30/7/47
f 9/20/48 1/73/48 13/18/48
f 31/19/49 28/74/49 9/20/49
f 11/21/50 12/4/50 13/6/50
f 5/23/51 8/27/51 6/24/51
f 4/26/52 7/75/52 8/27/52
f 33/28/53 5/3/53 3/29/53
f 6/24/54 8/27/54 12/4/54
f 7/15/55 29/14/55 38/31/55
f 8/27/56 7/75/56 10/32/56
f 28/76/57 40/77/57 9/78/57
f 40/9/58 11/8/58 9/34/58
f 31/19/59 13/18/59 15/35/59
f 17/36/60 15/35/60 14/37/60
f 14/37/61 18/41/61 16/38/61
f 2/39/62 14/37/62 15/35/62
f 31/19/63 17/36/63 16/38/63
f 14/37/64 2/39/64 18/41/64
f 2/39/65 41/40/65 18/41/65
f 34/1/66 33/28/66 25/79/66
f 25/79/67 22/42/67 34/1/67
f 39/44/68 42/56/68 20/45/68
f 30/7/69 40/9/69 37/47/69
f 36/49/70 20/80/70 41/11/70
f 22/50/71 27/63/71 29/14/71
f 30/7/72 26/48/72 21/52/72
f 42/54/73 19/81/73 35/53/73
f 35/53/74 28/74/74 31/19/74
f 37/55/75 19/82/75 42/56/75
f 26/57/76 32/60/76 25/58/76
f 32/60/77 27/64/77 22/61/77
f 21/62/78 25/79/78 33/28/78
f 26/57/79 37/55/79 39/44/79
f 27/63/80 36/49/80 38/31/80
f 32/60/81 39/44/81 36/46/81
f 37/47/82 40/9/82 35/65/82
f 40/83/83 28/84/83 35/85/83
f 31/19/84 46/86/84 44/67/84
f 43/70/85 44/67/85 46/86/85
f 46/86/86 45/68/86 43/70/86
f 44/67/87 43/70/87 20/71/87
f 45/68/88 46/86/88 31/19/88
f 41/40/89 20/71/89 47/69/89
f 20/71/90 43/70/90 47/69/90
