# Blender v2.93.6 OBJ File: 'SamHead.blend'
# www.blender.org
mtllib skull.mtl
o Cube_Cube.001
v -0.801919 -1.004588 -1.179063
v -1.000000 0.826442 -1.017296
v -0.830388 -0.911027 1.015881
v -0.849558 0.885901 1.009590
v -1.061584 -0.241074 1.021266
v -0.983333 -0.672180 -0.278174
v -1.000000 1.016980 -0.278174
v -1.134296 -0.258700 -0.278174
v -0.320608 -0.696054 -1.179063
v -1.000000 0.921711 -0.728618
v -0.892626 -0.838384 -0.728618
v -1.145430 -0.258700 -0.728618
v -1.156564 -0.258700 -1.033658
v -0.635287 0.452073 -1.146621
v -0.687874 0.169856 -1.132551
v -0.299402 0.452073 -1.132551
v -0.299402 0.169856 -1.186902
v -0.467344 0.561276 -1.139586
v 0.801918 -1.004588 -1.179063
v 1.000000 0.826442 -1.017296
v 0.830389 -0.911027 1.015881
v 0.849559 0.885901 1.009590
v 0.000000 -0.911027 1.204211
v 0.000000 1.096799 1.011595
v 1.061585 -0.241074 1.021265
v 0.983333 -0.672180 -0.278175
v 1.000000 1.016980 -0.278175
v -0.000000 -1.095150 -1.179063
v -0.000000 1.380905 -0.278174
v -0.000000 -0.761801 -0.277959
v -0.000000 -0.258700 -1.340878
v 1.134296 -0.258700 -0.278175
v 0.000001 -0.173029 1.555873
v 0.000000 0.348889 1.412487
v 0.320607 -0.696054 -1.179063
v 1.000000 0.921711 -0.728619
v 0.892625 -0.838384 -0.728619
v -0.000000 1.198943 -0.728619
v 1.145430 -0.258700 -0.728619
v -0.000000 -0.761801 -0.728619
v -0.000000 1.016980 -1.179063
v 1.156563 -0.258700 -1.033659
v 0.635286 0.452073 -1.146621
v 0.687873 0.169856 -1.132551
v 0.299401 0.452073 -1.132551
v 0.299401 0.169856 -1.186902
v 0.467343 0.561276 -1.139586
vt 0.818182 0.538321
vt 0.723387 0.400513
vt 0.900257 0.393905
vt 0.205476 0.452726
vt 0.030816 0.406759
vt 0.205098 0.402392
vt 0.507658 0.245046
vt 0.654864 0.318965
vt 0.507658 0.319335
vt 0.669823 0.285987
vt 0.830277 0.356192
vt 0.670173 0.335812
vt 0.702616 0.006855
vt 0.828068 0.198429
vt 0.670173 0.210060
vt 0.644601 0.031045
vt 0.507658 0.000000
vt 0.185861 0.379067
vt 0.210276 0.189877
vt 0.274287 0.250301
vt 0.305556 0.453140
vt 0.334411 0.379067
vt 0.205175 0.741565
vt 0.276701 0.527214
vt 0.319573 0.740919
vt 0.025185 0.741565
vt 0.205924 0.527032
vt 0.906787 0.547000
vt 1.000000 0.447654
vt 1.000000 0.575407
vt 0.829173 0.277310
vt 0.015369 0.454445
vt 0.639906 0.392416
vt 0.560531 0.393905
vt 0.125400 0.294469
vt 0.133116 0.230868
vt 0.080347 0.280663
vt 0.086412 0.225603
vt 0.011088 0.333383
vt 0.000000 0.166174
vt 0.065517 0.251119
vt 0.701092 0.673132
vt 0.679904 0.531571
vt 0.474427 0.467564
vt 0.649087 0.421597
vt 0.664534 0.469283
vt 0.360451 0.318965
vt 0.345492 0.245514
vt 0.997826 0.287526
vt 0.981274 0.008163
vt 0.838415 0.000000
vt 0.370715 0.031045
vt 0.286132 0.145221
vt 0.228591 0.000000
vt 0.374347 0.467978
vt 0.474805 0.417230
vt 0.403202 0.542052
vt 0.474729 0.756403
vt 0.360331 0.755757
vt 0.473979 0.541870
vt 0.654719 0.756403
vt 0.978208 0.714121
vt 0.998176 0.211599
vt 0.679903 0.543639
vt 0.454785 0.393905
vt 0.375410 0.392416
vt 0.150814 0.069016
vt 0.097474 0.127474
vt 0.082783 0.097946
vt 0.103818 0.072446
vt 0.048034 0.005630
vt 0.669823 0.245514
vt 0.315865 0.334865
vt 0.345492 0.205119
vt 0.000000 0.528801
vt 0.797216 0.734562
vt 0.797216 0.826835
vt 0.738560 0.776223
vt 0.872397 0.734562
vt 0.998176 0.337352
vt 0.345492 0.072034
vt 0.345492 0.393905
vt 0.738560 0.734562
vt 0.738560 0.826834
vt 0.679904 0.785174
vt 0.144177 0.132738
vn 0.0000 0.2769 0.9609
vn -0.6314 0.5474 0.5492
vn -0.8497 -0.0520 0.5246
vn -0.9910 -0.1323 0.0193
vn -0.6527 0.4765 -0.5890
vn -0.8330 -0.0902 -0.5458
vn 0.0000 -0.9998 -0.0213
vn -0.4894 -0.8647 0.1131
vn 0.0000 -0.9978 0.0666
vn -0.7427 0.6456 -0.1777
vn 0.0000 0.6057 -0.7957
vn 0.0000 0.9950 -0.0996
vn -0.7618 0.6478 -0.0083
vn -0.5268 -0.7465 0.4065
vn 0.0000 -0.8366 0.5478
vn 0.0000 -0.0171 -0.9998
vn -0.2401 -0.5955 -0.7666
vn -0.1630 -0.8443 -0.5104
vn -0.6795 -0.7319 0.0499
vn -0.9927 -0.1103 0.0477
vn 0.0000 -0.0222 0.9997
vn 0.0000 0.9359 -0.3523
vn -0.2259 0.0504 -0.9728
vn -0.1494 0.1863 -0.9710
vn -0.1586 0.0873 -0.9835
vn -0.1346 0.0842 -0.9873
vn -0.0609 0.0515 -0.9968
vn 0.6314 0.5474 0.5492
vn 0.0000 0.8184 0.5747
vn 0.9910 -0.1323 0.0193
vn 0.6527 0.4765 -0.5890
vn 0.7427 0.6456 -0.1777
vn 0.4894 -0.8647 0.1131
vn 0.6795 -0.7319 0.0499
vn 0.5268 -0.7465 0.4065
vn 0.2401 -0.5955 -0.7666
vn 0.8330 -0.0902 -0.5458
vn 0.8497 -0.0520 0.5246
vn 0.9927 -0.1103 0.0477
vn 0.7618 0.6478 -0.0083
vn 0.1630 -0.8443 -0.5104
vn 0.2259 0.0504 -0.9728
vn 0.1346 0.0842 -0.9873
vn 0.0609 0.0515 -0.9968
vn 0.1586 0.0873 -0.9835
vn 0.0000 -0.9627 -0.2706
vn 0.1494 0.1863 -0.9710
usemtl Material
s 1
f 34/1/1 4/2/2 5/3/3
f 12/4/4 2/5/5 13/6/6
f 30/7/7 11/8/8 40/9/9
f 10/10/10 41/11/11 2/12/5
f 4/13/2 29/14/12 7/15/13
f 3/16/14 30/7/7 23/17/15
f 13/18/6 31/19/16 9/20/17
f 11/21/8 13/6/6 1/22/18
f 5/23/3 6/24/19 3/25/14
f 4/26/2 8/27/20 5/23/3
f 33/28/21 3/29/14 23/30/15
f 6/24/19 12/4/4 11/21/8
f 7/15/13 38/31/22 10/10/10
f 8/27/20 10/32/10 12/4/4
f 11/8/8 1/33/18 9/34/17
f 31/19/16 15/35/23 17/36/24
f 14/37/25 16/38/26 17/36/24
f 2/39/5 15/35/23 13/18/6
f 31/19/16 16/38/26 41/40/11
f 41/40/11 16/38/26 18/41/27
f 22/42/28 24/43/29 34/1/1
f 39/44/30 20/45/31 36/46/32
f 30/7/7 37/47/33 26/48/34
f 36/49/32 41/11/11 38/31/22
f 22/50/28 29/14/12 24/51/29
f 30/7/7 21/52/35 23/17/15
f 35/53/36 31/19/16 42/54/37
f 37/55/33 42/56/37 39/44/30
f 26/57/34 25/58/38 21/59/35
f 32/60/39 22/61/28 25/58/38
f 21/62/35 33/28/21 23/30/15
f 26/57/34 39/44/30 32/60/39
f 27/63/40 38/31/22 29/14/12
f 32/60/39 36/46/32 27/64/40
f 35/65/36 19/66/41 37/47/33
f 31/19/16 44/67/42 42/54/37
f 45/68/43 47/69/44 43/70/45
f 44/67/42 20/71/31 42/54/37
f 45/68/43 31/19/16 41/40/11
f 47/69/44 45/68/43 41/40/11
f 5/3/3 33/28/21 34/1/1
f 34/1/1 24/43/29 4/2/2
f 12/4/4 10/32/10 2/5/5
f 30/7/7 6/72/19 11/8/8
f 10/10/10 38/31/22 41/11/11
f 4/13/2 24/51/29 29/14/12
f 3/16/14 6/72/19 30/7/7
f 9/20/17 1/73/18 13/18/6
f 31/19/16 28/74/46 9/20/17
f 11/21/8 12/4/4 13/6/6
f 5/23/3 8/27/20 6/24/19
f 4/26/2 7/75/13 8/27/20
f 33/28/21 5/3/3 3/29/14
f 6/24/19 8/27/20 12/4/4
f 7/15/13 29/14/12 38/31/22
f 8/27/20 7/75/13 10/32/10
f 28/76/46 40/77/9 9/78/17
f 40/9/9 11/8/8 9/34/17
f 31/19/16 13/18/6 15/35/23
f 17/36/24 15/35/23 14/37/25
f 14/37/25 18/41/27 16/38/26
f 2/39/5 14/37/25 15/35/23
f 31/19/16 17/36/24 16/38/26
f 14/37/25 2/39/5 18/41/27
f 2/39/5 41/40/11 18/41/27
f 34/1/1 33/28/21 25/79/38
f 25/79/38 22/42/28 34/1/1
f 39/44/30 42/56/37 20/45/31
f 30/7/7 40/9/9 37/47/33
f 36/49/32 20/80/31 41/11/11
f 22/50/28 27/63/40 29/14/12
f 30/7/7 26/48/34 21/52/35
f 42/54/37 19/81/41 35/53/36
f 35/53/36 28/74/46 31/19/16
f 37/55/33 19/82/41 42/56/37
f 26/57/34 32/60/39 25/58/38
f 32/60/39 27/64/40 22/61/28
f 21/62/35 25/79/38 33/28/21
f 26/57/34 37/55/33 39/44/30
f 27/63/40 36/49/32 38/31/22
f 32/60/39 39/44/30 36/46/32
f 37/47/33 40/9/9 35/65/36
f 40/83/9 28/84/46 35/85/36
f 31/19/16 46/86/47 44/67/42
f 43/70/45 44/67/42 46/86/47
f 46/86/47 45/68/43 43/70/45
f 44/67/42 43/70/45 20/71/31
f 45/68/43 46/86/47 31/19/16
f 41/40/11 20/71/31 47/69/44
f 20/71/31 43/70/45 47/69/44
